<?xml version="1.0" standalone="no"?>
<!DOCTYPE svg PUBLIC "-//W3C//DTD SVG 20010904//EN"
 "http://www.w3.org/TR/2001/REC-SVG-20010904/DTD/svg10.dtd">
<svg version="1.0" xmlns="http://www.w3.org/2000/svg"
 width="500.000000pt" height="500.000000pt" viewBox="0 0 500.000000 500.000000"
 preserveAspectRatio="xMidYMid meet">
<metadata>
Created by potrace 1.16, written by Peter Selinger 2001-2019
</metadata>
<g transform="translate(0.000000,500.000000) scale(0.100000,-0.100000)"
fill="#000000" stroke="none">
<path d="M1324 4841 c-23 -10 -52 -34 -65 -52 l-24 -34 0 -297 c0 -284 1 -298
21 -324 37 -51 70 -68 128 -68 59 -1 92 16 130 68 20 26 21 43 24 316 3 320 2
326 -61 374 -46 35 -102 41 -153 17z"/>
<path d="M3552 4853 c-36 -7 -99 -73 -111 -118 -7 -24 -11 -136 -11 -285 0
-216 3 -250 19 -285 52 -116 188 -137 265 -42 l31 39 0 296 0 297 -24 34 c-37
52 -102 77 -169 64z"/>
<path d="M3855 4544 c-12 -13 -15 -46 -15 -189 0 -149 -3 -182 -20 -227 -37
-100 -135 -168 -239 -168 -51 0 -130 40 -170 85 -60 69 -65 91 -71 305 l-5
195 -846 3 -847 2 -4 -187 c-3 -177 -5 -191 -29 -243 -96 -204 -343 -213 -447
-16 -26 49 -27 59 -32 246 l-5 195 -190 3 c-172 2 -196 1 -258 -19 -178 -57
-308 -203 -336 -379 -12 -72 -15 -468 -4 -633 l6 -107 2161 2 2161 3 3 345 c2
229 -1 365 -8 405 -33 170 -176 321 -350 368 -35 10 -125 17 -247 21 -165 5
-194 3 -208 -10z"/>
<path d="M356 3277 c-16 -12 -17 -86 -18 -1247 0 -855 3 -1249 10 -1280 37
-153 100 -265 205 -367 84 -82 155 -129 250 -167 155 -61 84 -58 1587 -60 756
-1 1443 1 1525 5 132 6 162 11 249 40 208 69 376 227 456 429 50 127 50 116
50 1415 0 1115 -1 1214 -17 1226 -22 19 -268 26 -289 9 -12 -11 -14 -174 -14
-1195 0 -752 -4 -1202 -10 -1235 -34 -178 -166 -324 -332 -366 -70 -18 -137
-19 -1508 -19 -1326 0 -1440 2 -1497 17 -83 23 -136 51 -189 100 -61 56 -108
131 -133 212 -21 68 -21 75 -21 1263 0 804 -3 1201 -10 1214 -10 17 -22 19
-143 19 -92 0 -139 -4 -151 -13z"/>
<path d="M2373 3105 c-29 -8 -70 -25 -90 -38 -21 -14 -150 -138 -287 -278
-269 -274 -293 -307 -281 -380 13 -73 91 -139 165 -139 61 0 98 29 287 220
103 106 210 210 236 231 l49 39 157 0 158 0 235 -237 c129 -131 356 -364 505
-518 149 -154 314 -322 366 -372 l94 -93 136 0 136 0 6 34 c4 18 5 370 3 780
-3 650 -5 748 -18 756 -9 6 -362 9 -910 9 -737 0 -904 -3 -947 -14z"/>
<path d="M2893 2361 c-73 -34 -108 -116 -76 -176 25 -47 811 -861 848 -879 66
-31 117 -24 167 22 37 35 42 45 45 93 3 44 0 61 -19 91 -25 39 -773 806 -818
838 -42 30 -98 34 -147 11z"/>
<path d="M1430 1871 c-19 -11 -106 -94 -192 -186 -172 -182 -188 -209 -169
-283 11 -38 47 -80 88 -101 28 -14 98 -14 126 0 31 16 356 339 373 371 49 93
-34 219 -145 218 -25 -1 -62 -9 -81 -19z"/>
<path d="M2868 1772 c-37 -35 -42 -45 -46 -94 l-4 -56 73 -78 c40 -44 165
-172 278 -287 221 -223 238 -235 314 -217 88 20 144 126 104 196 -20 35 -520
545 -549 560 -15 8 -50 14 -78 14 -45 0 -55 -4 -92 -38z"/>
<path d="M1830 1699 c-26 -8 -81 -57 -213 -192 -243 -249 -250 -257 -254 -320
-5 -65 19 -107 76 -137 47 -23 89 -25 134 -6 32 13 414 390 448 443 40 60 15
158 -51 197 -36 21 -97 27 -140 15z"/>
<path d="M2680 1499 c-77 -31 -122 -129 -89 -192 19 -35 467 -491 502 -509 63
-35 140 -18 190 41 33 40 41 79 25 123 -16 45 -460 501 -515 529 -41 21 -75
23 -113 8z"/>
<path d="M2165 1485 c-30 -11 -89 -66 -250 -230 -115 -119 -220 -235 -233
-258 -40 -71 -18 -143 58 -194 38 -27 107 -31 148 -9 15 8 129 117 253 243
186 187 229 236 239 270 21 70 -13 142 -83 173 -50 23 -78 24 -132 5z"/>
<path d="M2421 1179 c-28 -11 -353 -329 -406 -398 -70 -89 -34 -197 78 -231
74 -22 98 -9 251 136 77 74 144 134 147 134 4 0 58 -51 121 -114 125 -125 159
-148 224 -148 107 0 188 115 141 199 -19 34 -368 394 -402 415 -33 20 -113 24
-154 7z"/>
</g>
</svg>
